<svg width="432" height="174" viewBox="0 0 432 174" fill="none" xmlns="http://www.w3.org/2000/svg">
<path d="M32.064 133.28H18.048V152H7.488V84.8H30.24C34.464 84.8 37.984 85.856 40.8 87.968C43.616 90.016 45.696 92.768 47.04 96.224C48.448 99.68 49.152 103.488 49.152 107.648C49.152 110.784 49.024 113.504 48.768 115.808C48.512 118.112 47.84 120.512 46.752 123.008C45.728 125.504 44.064 127.744 41.76 129.728L49.248 152H38.496L32.064 133.28ZM27.744 123.2C30.88 123.2 33.184 122.4 34.656 120.8C36.192 119.136 37.12 117.248 37.44 115.136C37.824 113.024 38.016 110.528 38.016 107.648C38.016 104.256 37.536 101.696 36.576 99.968C35.616 98.176 34.272 96.992 32.544 96.416C30.816 95.776 28.576 95.456 25.824 95.456H18.048V123.2H27.744ZM68.2035 137.696C68.2035 139.488 68.6835 140.896 69.6435 141.92C70.6675 142.88 72.1395 143.36 74.0595 143.36C77.0035 143.36 80.9395 142.08 85.8675 139.52L89.7075 148.64C87.4035 150.112 84.7795 151.232 81.8355 152C78.8915 152.768 75.9475 153.152 73.0035 153.152C68.2675 153.152 64.4915 152 61.6755 149.696C58.9235 147.328 57.5475 143.808 57.5475 139.136V119.456C57.5475 114.272 59.1475 110.24 62.3475 107.36C65.6115 104.48 69.8995 103.04 75.2115 103.04C80.5235 103.04 84.6515 104.48 87.5955 107.36C90.6035 110.176 92.1075 114.112 92.1075 119.168V133.76L68.2035 135.008V137.696ZM81.4515 119.36C81.4515 117.44 80.8435 115.968 79.6275 114.944C78.4115 113.92 76.9075 113.408 75.1155 113.408C72.6835 113.408 70.9235 114.048 69.8355 115.328C68.7475 116.608 68.2035 118.016 68.2035 119.552V125.312L81.4515 124.448V119.36ZM94.0583 103.904H105.578L114.506 133.28L123.242 103.904H134.666L119.594 152H109.418L94.0583 103.904ZM149.654 95.168C148.118 95.168 146.774 94.592 145.622 93.44C144.47 92.288 143.894 90.944 143.894 89.408C143.894 87.936 144.47 86.656 145.622 85.568C146.774 84.416 148.118 83.84 149.654 83.84C151.126 83.84 152.406 84.416 153.494 85.568C154.646 86.656 155.222 87.936 155.222 89.408C155.222 90.944 154.646 92.288 153.494 93.44C152.406 94.592 151.126 95.168 149.654 95.168ZM144.086 103.904H154.646V152H144.086V103.904ZM162.215 103.904H173.734L182.663 133.28L191.399 103.904H202.823L187.751 152H177.575L162.215 103.904ZM217.811 95.168C216.275 95.168 214.931 94.592 213.779 93.44C212.627 92.288 212.051 90.944 212.051 89.408C212.051 87.936 212.627 86.656 213.779 85.568C214.931 84.416 216.275 83.84 217.811 83.84C219.283 83.84 220.563 84.416 221.651 85.568C222.803 86.656 223.379 87.936 223.379 89.408C223.379 90.944 222.803 92.288 221.651 93.44C220.563 94.592 219.283 95.168 217.811 95.168ZM212.243 103.904H222.803V152H212.243V103.904ZM238.582 99.296C238.582 93.664 240.054 89.664 242.998 87.296C245.942 84.864 249.558 83.648 253.846 83.648C255.382 83.648 256.95 83.808 258.55 84.128L256.822 93.728C256.054 93.408 255.254 93.248 254.422 93.248C253.014 93.248 251.798 93.696 250.774 94.592C249.814 95.488 249.334 97.056 249.334 99.296V103.904H257.686L255.382 113.792H249.334V152H238.582V99.296ZM284.873 163.808C286.537 163.808 288.009 163.296 289.289 162.272C290.633 161.248 291.305 159.616 291.305 157.376V151.808C291.113 151.872 290.377 152.096 289.097 152.48C287.817 152.928 285.929 153.152 283.433 153.152C277.801 153.152 273.449 151.648 270.377 148.64C267.369 145.568 265.865 141.056 265.865 135.104V103.904H276.424V132.224C276.424 136.256 276.937 139.008 277.961 140.48C279.049 141.888 280.873 142.592 283.433 142.592C285.289 142.592 286.761 142.336 287.849 141.824C289.001 141.248 289.865 140.224 290.441 138.752C291.017 137.216 291.305 135.04 291.305 132.224V117.152C291.305 114.976 291.817 112.832 292.841 110.72C293.929 108.608 295.401 106.848 297.257 105.44C299.177 104.032 301.321 103.232 303.689 103.04L307.625 111.68C305.769 112.128 304.329 113.024 303.305 114.368C302.345 115.648 301.865 117.088 301.865 118.688V157.856C301.865 162.016 300.873 165.28 298.889 167.648C296.969 170.08 293.673 171.584 289.001 172.16L284.873 163.808ZM315.698 147.2C315.698 148.48 315.218 149.6 314.258 150.56C313.298 151.52 312.146 152 310.802 152C309.522 152 308.402 151.52 307.442 150.56C306.482 149.6 306.002 148.48 306.002 147.2C306.002 145.856 306.482 144.704 307.442 143.744C308.402 142.784 309.522 142.304 310.802 142.304C312.146 142.304 313.298 142.784 314.258 143.744C315.218 144.704 315.698 145.856 315.698 147.2Z" fill="#FC7169"/>
<path d="M337.955 54.1928C327.579 47.5339 317.197 43.9455 306.59 43.0349C294.672 42.0117 289.951 57.491 287 63.7637C292.221 60.7065 302.218 53.1788 331.852 77.3731M337.955 54.1928C339.237 55.0159 340.52 55.8858 341.802 56.8034C351.476 63.7233 371.499 65.297 377.596 65.2122C387.194 65.0787 398.964 57.6399 407.921 46.005C416.877 34.3701 426.995 12.6953 427 5C416.03 5.00687 360.461 27.1112 345.826 43.0103C342.543 46.5771 339.962 50.328 337.955 54.1928ZM337.955 54.1928C334.077 61.6622 332.346 69.5574 331.852 77.3731M331.852 77.3731C331.461 83.5397 331.84 89.6569 332.54 95.4764C333.571 104.043 341.732 130.163 351.212 113.626C359.883 98.5029 347.791 91.6961 345.797 89.7898C340.719 84.9332 336.085 80.8294 331.852 77.3731Z" stroke="#FC7169" stroke-width="8"/>
</svg>
