<svg width="460" height="415" viewBox="0 0 460 415" fill="none" xmlns="http://www.w3.org/2000/svg">
<path fill-rule="evenodd" clip-rule="evenodd" d="M331.487 359.083C327.014 359.083 322.468 359.133 317.86 359.238C144.889 363 76.367 390.205 188.409 409.59C201.68 411.924 257.581 415 312.392 415C349.471 415 386.057 413.594 408.618 409.59C512.522 391.084 444.577 359.083 331.487 359.083Z" fill="#FFECDE"/>
<path fill-rule="evenodd" clip-rule="evenodd" d="M160.379 161.835C156.005 161.835 148.877 171.655 135.054 180.099C110.778 194.9 112.204 234.438 112.204 234.438C112.204 234.438 138.201 215.965 145.208 206.025C152.111 195.981 165.618 164.005 161.454 162.061C161.117 161.906 160.755 161.835 160.379 161.835Z" fill="#61878C"/>
<path fill-rule="evenodd" clip-rule="evenodd" d="M120.265 309.141C101.17 309.141 76.0137 311.442 72.8562 313.291C67.6908 316.428 81.5394 390.359 81.5394 390.359C83.4199 391.703 90.5068 392.124 98.9942 392.124C113.454 392.124 132.004 390.9 135.941 390.9C136.041 390.9 136.135 390.9 136.223 390.9C141.386 390.9 142.011 319.241 142.113 312.637C142.113 310.071 132.415 309.141 120.265 309.141Z" fill="#F9BB75"/>
<path fill-rule="evenodd" clip-rule="evenodd" d="M143.811 230.301C142.103 230.301 140.374 230.401 138.632 230.617C116.968 233.306 116.661 265.56 116.661 265.56C116.661 265.56 135.244 260.292 147.982 253.09C150.189 251.866 152.826 251.391 155.654 251.391C165.362 251.391 177.36 256.951 182.337 256.951C184.345 256.951 185.212 256.051 184.331 253.516C180.834 243.729 163.44 230.301 143.811 230.301Z" fill="#61878C"/>
<path fill-rule="evenodd" clip-rule="evenodd" d="M62.0967 244.825C59.1957 244.825 56.0812 245.105 52.7376 245.731C31.1909 249.918 20.6743 276.717 22.1218 287.871C22.3353 289.697 22.9445 290.456 23.8769 290.456C28.6661 290.456 41.9819 270.176 54.1244 270.176C54.1793 270.176 54.2322 270.176 54.2851 270.184C55.2174 270.205 56.2086 270.211 57.2389 270.211C72.398 270.211 97.0669 268.142 97.0669 268.142C97.0669 268.142 88.4463 244.825 62.0967 244.825Z" fill="#61878C"/>
<path fill-rule="evenodd" clip-rule="evenodd" d="M69.9769 215.778C53.4036 215.778 38.3248 224.851 34.0566 233.013C32.4328 236.115 34.0645 237.003 37.4375 237.003C41.9329 237.003 49.535 235.43 56.6708 235.43C61.7676 235.43 66.6313 236.237 69.9436 239.009C81.4613 248.671 104.902 253.111 104.902 253.111C104.902 253.111 103.766 224.345 82.6894 217.685C78.4545 216.357 74.1726 215.778 69.9769 215.778Z" fill="#61878C"/>
<path fill-rule="evenodd" clip-rule="evenodd" d="M146.84 271.796C135.935 271.796 126.455 279.987 126.455 279.987C126.455 279.987 132.928 287.435 139.618 289.917C146.297 292.512 146.091 305.892 157.094 313.338C161.303 316.229 165.585 317.428 168.947 317.428C174.365 317.428 177.371 314.299 173.755 310.1C167.997 303.409 172.414 284.742 157.917 275.134C154.267 272.709 150.473 271.796 146.84 271.796Z" fill="#61878C"/>
<path fill-rule="evenodd" clip-rule="evenodd" d="M62.0924 273.865C58.4177 273.865 54.6686 275.13 51.2917 278.587C38.8926 291.396 44.9354 315.374 40.5575 323.359C38.303 327.478 40.4478 329.882 44.3478 329.882C48.0225 329.882 53.2544 327.756 57.8497 322.926C67.2245 312.961 61.497 294.568 67.6436 290.523C72.0157 287.676 76.6051 285.159 81.3963 283.074C81.3963 283.074 72.0156 273.865 62.0924 273.865Z" fill="#61878C"/>
<path fill-rule="evenodd" clip-rule="evenodd" d="M89.8683 286.313C84.9204 286.313 79.4319 288.927 77.4241 299.488C73.5672 320.393 79.9255 350.962 76.2802 356.632C75.2753 358.169 75.9335 358.922 77.479 358.922C81.7413 358.922 92.7418 353.229 94.4303 342.625C96.7221 328.287 95.5762 293.377 99.0198 288.819C99.0198 288.819 94.7085 286.313 89.8683 286.313Z" fill="#61878C"/>
<path fill-rule="evenodd" clip-rule="evenodd" d="M108.827 288.844C108.725 289.498 108.725 290.249 108.62 290.788C108.518 290.143 108.31 289.601 108.101 288.956L108.827 288.844ZM100.551 286.143C100.961 286.255 101.378 286.361 101.787 286.579C104.894 288.417 106.447 293.272 107.274 297.919C105.828 293.49 103.55 289.498 100.551 286.143ZM130.249 201.249C129.939 201.573 122.799 207.403 116.378 221.229C112.136 230.519 107.691 244.667 106.964 264.325C99.1195 230.351 83.1162 227.503 78.2564 227.503C77.4769 227.503 76.9793 227.573 76.85 227.608L77.0596 228.899C77.0596 228.899 77.3828 228.857 77.9665 228.857C79.7549 228.857 83.9918 229.285 88.7516 232.787C94.6476 237.109 102.514 247.152 106.857 270.051C106.857 276.099 107.274 282.149 107.893 288.087C103.966 275.342 97.5446 266.269 88.4421 261.088C82.0271 257.468 75.1439 256.36 69.1187 256.36C59.6793 256.36 52.3514 259.076 52.2222 259.144L52.7413 260.331C52.802 260.331 59.8811 257.713 69.0384 257.713C74.8815 257.713 81.5707 258.781 87.8232 262.275C97.7542 267.889 104.485 278.367 108.001 293.386L108.41 293.272C108.41 294.135 108.31 294.894 108.208 295.651C107.274 291.328 105.513 287.118 102.514 285.392C101.478 284.738 100.234 284.529 98.998 284.529C94.6476 280.529 88.2325 277.616 79.0223 277.504C78.848 277.504 78.6736 277.504 78.4974 277.504C69.5496 277.504 62.7997 280.199 58.5354 285.392C52.0146 293.386 53.5679 304.291 53.5679 304.726L54.9116 304.508C54.9116 304.396 53.3583 293.707 59.5716 286.255C63.5244 281.392 69.9532 278.906 78.4778 278.906C78.66 278.906 78.8401 278.906 79.0223 278.906C87.306 278.906 93.202 281.392 97.4447 284.738C95.7915 285.174 94.1304 285.931 92.7848 286.9C84.6088 292.409 85.3355 310.341 85.4433 311.204L86.6812 311.098C86.6812 310.88 85.8526 293.168 93.4096 288.087C95.0648 287.012 96.8258 286.255 98.6886 285.931C107.274 294.031 107.791 306.235 107.791 306.992H108.101V307.749H109.237C109.237 307.855 109.237 307.961 109.137 308.073L110.48 308.291C112.653 292.95 117.93 283.554 126.006 280.423C128.104 279.595 130.309 279.236 132.548 279.236C146.048 279.236 160.698 292.205 160.88 292.305L161.707 291.328C157.981 288.087 153.84 285.28 149.498 283.012C143.312 279.601 137.502 277.904 132.407 277.904C129.917 277.904 127.592 278.311 125.489 279.124C117.211 282.367 111.826 291.651 109.344 306.88C109.344 306.017 109.344 304.83 109.237 303.322C109.137 291.006 111.309 255.686 138.834 244.127L138.317 242.837C118.449 251.258 111.415 271.672 109.035 287.442C102.722 226.092 130.766 202.548 131.075 202.33L130.249 201.249Z" fill="#413243"/>
<path fill-rule="evenodd" clip-rule="evenodd" d="M113.936 278.02C109.045 278.02 105.482 283.045 105.482 283.045C105.482 283.031 105.482 283.031 105.482 283.031C105.429 283.031 102.944 315.563 105.79 329.405C107.862 339.403 118.5 344.399 122.89 344.399C124.608 344.399 125.376 343.636 124.308 342.113C120.399 336.687 134.284 306.716 125.129 288.251C121.247 280.363 117.278 278.02 113.936 278.02Z" fill="#61878C"/>
<path fill-rule="evenodd" clip-rule="evenodd" d="M109.928 278.022C108.336 278.022 106.622 279.076 104.902 281.193L106.063 282.087C107.566 280.348 108.812 279.448 109.942 279.448C110.124 279.448 110.304 279.468 110.478 279.512C114.894 280.966 116.749 296.867 117.097 302.911L118.606 302.795C118.492 300.562 117.217 280.182 110.947 278.168C110.614 278.072 110.275 278.022 109.928 278.022Z" fill="#413243"/>
<path fill-rule="evenodd" clip-rule="evenodd" d="M168.142 309.141C168.142 309.141 159.748 382.728 166.874 383.811C166.923 383.819 166.974 383.825 167.025 383.825C174.277 383.825 187.165 316.507 187.165 316.507L168.142 309.141Z" fill="#413243"/>
<path fill-rule="evenodd" clip-rule="evenodd" d="M420.197 315.292L399.916 322.658C399.916 322.658 413.623 389.976 421.392 389.976C421.446 389.976 421.501 389.97 421.556 389.962C429.292 388.879 420.197 315.292 420.197 315.292Z" fill="#413243"/>
<path fill-rule="evenodd" clip-rule="evenodd" d="M324.857 134.74C273.46 134.74 222.765 137.158 203.125 138.996C160.138 143.026 162.794 253.126 162.794 253.126C125.107 275.647 133.706 313.947 162.425 321.559C179.469 326.014 233.444 328.093 291.888 328.093C331.946 328.093 374.095 327.117 407.908 325.258C399.789 325.68 446.162 327.133 441.592 286.225C427.849 253.126 426.71 242.229 400.648 241.027C400.648 241.027 407.908 170.044 383.468 138.996C365.43 134.74 383.468 138.996 324.857 134.74Z" fill="#FC7169"/>
<path fill-rule="evenodd" clip-rule="evenodd" d="M277.006 249.269C118.833 263.877 189.731 289.779 203.182 295.422C210.745 298.587 241.411 301.144 272.974 301.144C297.826 301.144 323.236 299.559 338.356 295.422C477.815 257.262 277.006 249.269 277.006 249.269Z" fill="#F9BB75"/>
<path fill-rule="evenodd" clip-rule="evenodd" d="M187.411 18.8636C182.839 18.8636 178.397 19.3492 174.284 20.3533C147.85 26.6916 133.378 75.0744 151.495 94.6516C160.934 104.913 170.599 108.065 178.896 108.065C192.097 108.065 201.869 100.1 201.869 100.1C201.869 100.1 214.11 105.158 219.586 105.158C220.297 105.158 220.891 105.071 221.332 104.884C225.077 103.106 214.67 98.9877 217.585 93.7615C220.391 88.4211 241.106 89.7593 241.106 59.2774C241.106 33.4345 212.337 18.8636 187.411 18.8636Z" fill="#F9BB75"/>
<path fill-rule="evenodd" clip-rule="evenodd" d="M185.653 35.4376C187.806 35.4376 190.501 37.1472 193.195 40.3111C189.396 41.9709 185.914 44.1868 182.644 46.8383C181.691 46.5084 180.635 46.1764 179.579 45.9544C179.793 40.8651 181.164 37.4356 183.906 35.8837C184.433 35.5808 185.022 35.4376 185.653 35.4376ZM179.579 46.8383C180.319 47.0603 181.06 47.2844 181.794 47.6142C181.06 48.2761 180.319 48.9379 179.689 49.7139C179.579 48.7221 179.579 47.8383 179.579 46.9461V46.8383ZM204.054 38.5705C204.693 38.5705 205.329 38.5933 205.96 38.6514C208.072 38.9813 210.602 40.0892 211.027 43.4087C211.233 45.7324 210.498 48.83 208.916 52.5894C207.646 52.4234 206.385 52.3446 205.118 52.3446C203.848 52.3446 202.581 52.4234 201.32 52.5894C199.735 48.276 197.521 44.1868 194.771 40.6411C197.678 39.2614 200.873 38.5705 204.054 38.5705ZM193.929 41.0871C196.677 44.5167 198.783 48.4981 200.366 52.7036C198.995 52.9193 197.623 53.1434 196.356 53.4733C192.344 50.9297 188.129 48.9379 183.692 47.2844C186.86 44.7387 190.241 42.6328 193.929 41.0871ZM178.948 51.7056C179.162 53.2575 179.367 54.9193 179.689 56.687C178.523 56.019 177.467 55.465 176.31 55.0273C177.152 53.9193 177.996 52.8114 178.948 51.7056ZM200.681 53.5895C201.106 54.8032 201.421 56.019 201.737 57.1248C200.366 56.1331 198.893 55.1351 197.412 54.1413C198.468 53.9193 199.625 53.8115 200.681 53.5895ZM182.85 47.9462C187.073 49.4919 191.187 51.3737 194.985 53.8115C190.871 54.9194 186.86 56.4651 183.062 58.4547L180.739 57.241C180.319 55.1351 180.004 52.9193 179.792 50.8218C180.739 49.83 181.794 48.83 182.85 47.9462ZM181.06 58.4547L182.116 59.0087L181.266 59.4547L181.06 58.4547ZM205.022 53.3094C206.173 53.3094 207.331 53.3654 208.491 53.4733C207.435 55.687 206.275 57.795 205.008 59.8925C204.273 59.2327 203.533 58.6788 202.902 58.0107L202.793 58.1248C202.477 56.465 202.052 55.0273 201.635 53.4733C202.746 53.3654 203.876 53.3094 205.022 53.3094ZM203.122 59.5688C203.547 59.9008 204.068 60.2307 204.479 60.6705C204.164 61.1083 203.746 61.6622 203.431 62.2162C203.431 61.3676 203.231 60.5191 203.122 59.5688ZM166.451 53.214C166.964 53.214 167.54 53.2658 168.185 53.3654C170.51 53.6974 172.723 54.4733 174.939 55.465C173.883 56.909 173.039 58.4547 172.408 60.1166C171.881 61.2224 171.456 62.4382 171.242 63.5461C165.758 60.4464 162.804 56.3572 163.331 54.9194C163.66 53.7969 164.682 53.214 166.451 53.214ZM175.781 55.8032C177.152 56.465 178.523 57.1248 180.004 57.9028C180.108 58.5626 180.319 59.2327 180.423 59.8925C177.996 61.3303 175.569 62.8843 173.252 64.652C172.937 64.43 172.512 64.2059 172.087 64.098C172.298 62.8843 172.723 61.6623 173.142 60.5543C173.883 58.9008 174.835 57.3489 175.781 55.8032ZM209.443 53.5895C210.918 53.8115 212.289 54.2492 213.77 54.6953C217.143 56.019 218.939 57.5709 218.939 59.2328C218.835 61.3303 215.668 63.654 210.389 65.3138C208.929 63.6665 207.358 62.0274 205.686 60.49C207.043 58.297 208.291 55.9962 209.443 53.5895ZM171.881 64.9839V65.0917C171.983 65.0917 172.196 65.2059 172.298 65.3138L171.771 65.7599C171.881 65.5358 171.881 65.3137 171.881 64.9839ZM205.118 61.2224C206.7 62.5461 208.071 63.9901 209.443 65.6437C207.435 66.1976 205.433 66.6437 203.431 66.9736C203.533 65.8677 203.533 64.7598 203.533 63.654V63.7681C204.062 62.8842 204.589 62.1083 205.118 61.2224ZM180.635 60.7784C181.375 63.654 182.116 65.9818 182.431 67.0897C181.375 66.8657 180.218 66.7516 179.052 66.5358C177.503 66.2059 175.849 65.6727 174.294 65.0254C176.37 63.5025 178.455 62.0855 180.635 60.7784ZM202.581 64.9839C202.581 65.7598 202.477 66.4217 202.477 67.1976L200.791 67.3055C201.421 66.5358 202.052 65.7598 202.581 64.9839ZM196.15 54.4733C198.254 55.687 200.154 57.1248 202.052 58.5626C202.375 60.1165 202.581 61.7763 202.581 63.322C201.635 64.7598 200.579 66.0897 199.523 67.5275C198.577 67.6354 197.623 67.7516 196.677 67.7516C192.668 64.544 188.444 61.6623 184.117 59.0087H184.016C187.916 57.0169 192.029 55.465 196.15 54.4733ZM182.96 59.5626C187.175 62.0004 191.296 64.7598 195.196 67.7516C194.525 67.7723 193.861 67.7786 193.189 67.7786C189.953 67.7786 186.717 67.5628 183.487 67.1976C183.166 66.4217 182.321 63.7681 181.479 60.3386L182.96 59.5626ZM169.282 45.3154C170.913 45.3154 172.539 45.4648 174.198 45.7324C175.679 45.9544 177.152 46.2843 178.633 46.6163C178.633 47.9462 178.737 49.1599 178.839 50.4898C177.577 51.8197 176.412 53.1434 175.466 54.6953C173.142 53.5895 170.715 52.8115 168.289 52.3737C167.617 52.2596 167.013 52.216 166.479 52.216C163.75 52.216 162.735 53.4961 162.379 54.6953C161.644 57.0169 165.758 61.6623 171.037 64.5441C170.927 65.2059 170.825 65.8677 170.825 66.5358C169.981 67.3055 169.131 67.9736 168.398 68.6354C161.644 61.7763 158.052 54.2492 159.533 49.83C160.163 47.3922 162.489 45.9544 166.073 45.5084C167.156 45.3797 168.22 45.3154 169.282 45.3154ZM198.577 68.5275C198.468 68.6354 198.364 68.7433 198.254 68.9653L197.727 68.5275H198.577ZM170.715 67.7516C170.715 68.9653 170.927 70.1811 171.141 71.2869C170.4 70.733 169.66 70.0732 169.029 69.2972C169.66 68.8574 170.187 68.3035 170.715 67.7516ZM202.266 68.0815C202.052 69.2972 201.737 70.5193 201.21 71.6251C200.475 70.9571 199.735 70.2952 198.893 69.5192L199.948 68.4113C200.681 68.3034 201.531 68.1893 202.266 68.0815ZM184.016 68.3034C186.758 68.5981 189.5 68.7433 192.243 68.7433C193.614 68.7433 194.985 68.7059 196.356 68.6354L197.623 69.7412C194.881 72.8409 191.823 75.8244 188.656 78.4842C186.86 75.1625 185.277 71.733 183.802 68.3034H184.016ZM173.458 65.7599C175.254 66.5358 177.05 67.0897 179.052 67.5275C180.319 67.7516 181.589 67.9736 182.85 68.0815C184.331 71.8409 186.018 75.4924 187.916 79.036C187.6 79.368 187.285 79.59 186.969 79.8058C182.535 79.1439 177.366 76.6003 172.408 72.3948C171.881 70.6251 171.667 68.8574 171.771 67.0897C172.298 66.6437 172.827 66.1976 173.458 65.7599ZM198.364 70.2952C199.208 71.0712 200.05 71.733 200.895 72.5089C199.31 75.7165 196.568 78.1522 193.4 79.2601C192.139 79.8058 190.871 80.0298 189.5 80.0298C189.396 79.8058 189.287 79.59 189.075 79.368C192.454 76.6003 195.512 73.6169 198.364 70.2952ZM209.972 66.4217C212.816 70.0732 214.085 73.3948 213.871 76.0463C213.66 77.7061 212.816 79.2601 211.554 80.2518C210.918 80.6979 210.389 81.1357 209.862 81.4676C207.646 78.0381 205.008 74.9385 201.95 72.287C202.581 70.8492 203.006 69.4114 203.218 67.9736C205.535 67.6354 207.756 67.0898 209.972 66.4217ZM173.039 74.1708C176.837 77.2621 181.164 79.4759 185.914 80.6979C184.433 81.6896 182.96 82.5735 181.479 83.4573C177.791 81.2519 174.835 78.0381 173.039 74.1708ZM187.175 80.8058C187.814 80.9137 188.444 81.0278 189.075 81.0278C190.241 83.0195 191.714 85.0113 193.195 86.8868C189.5 86.7789 185.702 85.7872 182.431 84.0113C184.016 83.0195 185.592 82.0195 187.175 80.8058ZM201.635 73.1708C204.479 75.7165 207.016 78.7061 209.127 82.0195C204.802 85.0112 199.735 86.671 194.456 86.8868C192.873 85.0113 191.398 83.1274 190.131 81.0278C191.296 80.9137 192.558 80.6979 193.723 80.1439C197.096 78.9219 199.839 76.4924 201.635 73.1708ZM168.398 69.9653C169.454 71.0711 170.51 72.0629 171.667 72.9488C173.252 77.5983 176.412 81.4676 180.423 83.9034C176.625 85.8951 173.046 86.9097 169.72 86.9097C168.432 86.9097 167.178 86.7582 165.971 86.4491C163.229 85.8951 161.748 84.6793 161.219 82.9054C160.479 79.8057 163.119 75.0546 168.398 69.9653ZM209.443 82.9054C210.287 84.2353 210.602 85.8951 210.183 87.4408C209.862 88.5487 209.018 89.4325 207.962 89.8786L207.86 89.9865C206.489 91.0633 204.849 91.6318 203.204 91.6318C202.82 91.6318 202.436 91.6027 202.052 91.5384C199.523 90.9844 197.198 89.6545 195.41 87.7789C200.475 87.4408 205.219 85.7872 209.443 82.9054ZM185.716 34.3588C184.913 34.3588 184.112 34.5891 183.487 34.9978C180.533 36.7676 178.839 40.3112 178.633 45.6245C175.575 44.805 172.471 44.3444 169.303 44.3444C168.198 44.3444 167.088 44.4005 165.971 44.5166C161.96 45.0706 159.533 46.8383 158.581 49.606C157.21 54.3654 160.692 62.0004 167.76 69.2972C162.173 74.6086 159.533 79.6979 160.377 83.1274C160.904 85.2333 162.7 86.7789 165.758 87.4408C166.183 87.5549 166.602 87.6628 166.917 87.6628C167.787 87.7935 168.672 87.864 169.577 87.864C173.272 87.864 177.242 86.7499 181.479 84.3494C185.222 86.4636 189.349 87.6711 193.586 87.6711C193.77 87.6711 193.956 87.6711 194.141 87.6628C196.252 90.1006 198.994 91.6462 201.95 92.3143C202.43 92.4014 202.91 92.4513 203.382 92.4513C205.214 92.4513 206.982 91.7977 208.491 90.6545C209.758 90.1006 210.712 88.9927 211.233 87.6628C211.658 85.7872 211.343 83.9033 210.389 82.2436C211.027 81.8037 211.554 81.3597 212.185 80.8058C213.66 79.6979 214.612 77.9302 214.825 76.0463C215.141 73.1707 213.77 69.7413 211.027 66.0897C216.512 64.2059 219.781 61.7764 219.891 59.1166C219.891 57.6788 218.939 55.5791 214.085 53.8115C212.714 53.2575 211.233 52.9193 209.758 52.7036C211.445 48.83 212.185 45.5084 211.87 43.1868C211.554 40.2033 209.546 38.2053 206.064 37.6576C205.447 37.6078 204.822 37.5788 204.199 37.5788C200.716 37.5788 197.275 38.363 194.141 39.8651C191.502 36.7675 188.76 34.7758 186.544 34.4459C186.27 34.3878 185.99 34.3588 185.716 34.3588Z" fill="#413243"/>
<path fill-rule="evenodd" clip-rule="evenodd" d="M249.627 85.064C245.817 85.064 244.28 87.0205 242.55 90.6388C240.777 94.3484 243.735 96.3132 240.777 100.021C236.147 105.921 246.393 111.921 246.393 111.921C246.718 111.992 247.034 112.029 247.333 112.029C255.723 112.029 253.846 85.0702 249.94 85.0702C249.837 85.064 249.729 85.064 249.627 85.064Z" fill="#413243"/>
<path fill-rule="evenodd" clip-rule="evenodd" d="M260.536 76.7651C256.379 76.7651 250.264 79.1074 248.858 82.8606C247.637 85.9769 246.523 87.4229 245.202 91.4272C243.982 95.4335 247.737 99.1058 247.737 99.1058C247.539 101.855 266.328 118.254 274.529 118.254C274.641 118.254 274.747 118.254 274.853 118.245C282.874 117.913 284.292 109.121 282.464 106.784C280.637 104.45 283.785 103.892 284.498 98.4336C285.105 93.0974 282.161 90.755 279.622 90.0911C277.082 89.533 281.146 85.7528 273.934 81.0743C272.774 80.3149 271.574 80.0992 270.437 80.0992C268.888 80.0992 267.45 80.51 266.375 80.51C265.364 80.51 264.673 80.1489 264.495 78.7381C264.289 77.3792 262.667 76.7651 260.536 76.7651Z" fill="#413243"/>
<path fill-rule="evenodd" clip-rule="evenodd" d="M269.609 109.961C268.663 110.737 256.83 120.463 256.83 120.463C256.83 120.463 256.934 125.11 257.249 130.198C257.57 135.283 245.629 138.048 239.081 138.594C238.1 138.594 257.529 165.972 266.824 165.972C267.537 165.972 268.189 165.813 268.765 165.462C279.328 159.161 296.864 144.457 291.688 139.37C286.617 134.177 269.609 135.391 269.397 132.625C269.08 129.866 269.609 109.961 269.609 109.961Z" fill="#F79A90"/>
<path fill-rule="evenodd" clip-rule="evenodd" d="M260.835 91.2965C255.222 91.2965 249.909 93.7841 248.466 99.0746C245.941 108.826 250.993 128.625 261.355 128.625C261.496 128.625 261.637 128.625 261.785 128.619C277.276 127.604 273.622 96.4916 273.622 96.4916C270.59 93.0911 265.605 91.2965 260.835 91.2965Z" fill="#F79A90"/>
<path fill-rule="evenodd" clip-rule="evenodd" d="M275.34 107.894C273.789 107.894 273.44 111.641 273.44 111.641C272.519 114.046 271.399 118.26 273.554 118.26C273.587 118.26 273.614 118.26 273.648 118.251C275.916 118.139 281.187 113.036 276.535 108.513C276.071 108.075 275.675 107.894 275.34 107.894Z" fill="#F79A90"/>
<path fill-rule="evenodd" clip-rule="evenodd" d="M275.908 134.858C275.908 134.858 276.766 147.804 263.387 147.804C262.862 147.804 262.32 147.781 261.756 147.746C247.805 146.866 252.142 136.171 252.142 136.171C246.154 137.808 223.939 138.461 218.668 154.188C213.291 169.794 196.965 253.532 207.505 258.667C208.445 259.128 209.458 259.335 210.533 259.335C221.213 259.335 238.615 238.77 261.064 238.77C261.534 238.77 262.004 238.777 262.475 238.8C279.257 239.515 299.116 245.659 309.783 245.659C315.342 245.659 318.41 243.991 317.242 239.011C311.656 215.212 314.657 148.725 305.251 142.285C295.745 135.951 275.908 134.858 275.908 134.858Z" fill="#497F84"/>
<path fill-rule="evenodd" clip-rule="evenodd" d="M297.794 139.007C295.516 139.007 294.905 146.538 295.902 157.213C296.924 169.277 300.908 199.809 308.985 201.108C309.502 201.199 310.034 201.243 310.571 201.243C318.442 201.243 328.204 192.199 328.204 192.199C318.694 141.675 301.725 141.789 298.764 139.395C298.411 139.134 298.092 139.007 297.794 139.007Z" fill="#497F84"/>
<path fill-rule="evenodd" clip-rule="evenodd" d="M237.377 139.013C233.042 139.013 207.15 145.213 200.89 192.189C200.89 192.189 210.907 201.243 219.046 201.243C219.604 201.243 220.155 201.199 220.692 201.108C229.058 199.807 233.187 169.238 234.246 157.159C235.41 145.086 234.983 141.715 237.948 139.212C238.091 139.098 237.88 139.013 237.377 139.013Z" fill="#497F84"/>
<path fill-rule="evenodd" clip-rule="evenodd" d="M258.295 126.565L257.688 127.218C258.894 128.065 260.304 128.627 261.909 128.627C263.109 128.627 264.42 128.256 265.523 127.687L265.021 126.936C264.081 127.48 263.017 127.75 261.962 127.75C260.649 127.75 259.351 127.339 258.295 126.565Z" fill="#251933"/>
<path fill-rule="evenodd" clip-rule="evenodd" d="M285.214 228.221C284.678 228.221 284.133 228.256 283.577 228.32C219.877 236.044 200.949 251.04 200.949 251.04C198.93 283.33 217.09 288.002 233.753 288.002C240.536 288.002 247.081 287.222 251.907 287.222C254.299 287.222 256.264 287.415 257.643 287.981C257.643 287.981 260.673 379.064 268.829 390.197C269.842 391.602 274.619 392.118 280.605 392.118C290.162 392.118 302.783 390.799 308.056 389.645C316.51 387.796 322.322 228.221 285.214 228.221Z" fill="#413243"/>
<path fill-rule="evenodd" clip-rule="evenodd" d="M327.503 230.295C310.642 230.295 289.021 236.984 289.021 236.984C269.447 252.673 292.642 279.29 307.97 286.691C323.298 293.981 328.998 385.112 336.762 388.865C338.58 389.72 341.849 390.043 345.792 390.043C358.699 390.043 378.81 386.547 378.81 386.547C381.086 386.101 355.919 245.71 344.117 234.667C340.631 231.436 334.474 230.295 327.503 230.295Z" fill="#413243"/>
<path fill-rule="evenodd" clip-rule="evenodd" d="M355.683 381.751C352.112 381.751 345.885 386.919 345.885 386.919C345.885 386.919 339.956 404.131 350.79 404.791C357.622 405.278 366.406 406.647 373.165 406.647C377.122 406.647 380.387 406.181 382.16 404.791C386.961 401.042 359.27 389.786 358.042 383.83C357.761 382.317 356.872 381.751 355.683 381.751Z" fill="#413243"/>
<path fill-rule="evenodd" clip-rule="evenodd" d="M289.192 381.757C285.586 381.757 279.287 386.886 279.287 386.886C279.287 386.886 273.357 404.127 284.191 404.789C291.024 405.276 299.807 406.647 306.567 406.647C310.523 406.647 313.789 406.181 315.561 404.789C320.362 401.031 292.671 389.873 291.549 383.79C291.269 382.311 290.373 381.757 289.192 381.757Z" fill="#413243"/>
<path fill-rule="evenodd" clip-rule="evenodd" d="M260.433 86.9075C249.678 86.9075 247.688 98.5052 248.042 98.5052C248.056 98.5052 248.062 98.4969 248.075 98.4824C248.677 97.8164 249.219 97.5591 249.744 97.5591C251.4 97.5591 252.833 100.101 255.019 100.101C255.989 100.101 257.107 99.5965 258.455 98.1463C260.99 95.4491 264.073 93.6026 266.455 93.6026C267.763 93.6026 268.856 94.1608 269.538 95.4347C271.45 99.1567 269.034 102.879 271.246 105.927C273.44 108.937 271.691 119.458 268.235 119.458C268.196 119.458 268.163 119.458 268.124 119.452C265.001 119.253 266.625 116.132 262.612 116.132C262.094 116.132 261.493 116.184 260.772 116.3C254.908 117.128 255.235 121.232 253.887 121.232C253.775 121.232 253.658 121.209 253.513 121.143C248.107 119.296 248.291 107.472 247.609 107.472C247.539 107.472 247.466 107.582 247.374 107.837C246.463 110.769 246.365 118.439 249.082 120.806C251.674 123.261 251.307 132.535 259.758 132.535C259.863 132.535 259.961 132.535 260.065 132.535C275.783 132.199 271.953 120.242 274.172 118.329C276.286 116.52 270.944 113.591 275.677 105.582C277.694 101.976 277.295 92.613 270.041 89.3453C266.245 87.6025 263.078 86.9075 260.433 86.9075Z" fill="#413243"/>
<path fill-rule="evenodd" clip-rule="evenodd" d="M258.788 109.961C258.669 110.392 257.811 114.038 257.688 114.897C257.688 115.112 257.687 115.328 257.811 115.544C258.058 116.081 258.974 116.185 259.464 116.185H259.646V115.216C259.159 115.216 258.728 115.112 258.299 114.897C258.422 114.15 258.912 111.787 259.28 110.282L258.788 109.961Z" fill="#413243"/>
<path fill-rule="evenodd" clip-rule="evenodd" d="M238.127 139.013C226.866 139.013 210.453 150.101 198.924 183.601C198.924 183.601 222.799 195.019 233.626 195.019C235.289 195.019 236.642 194.751 237.555 194.131C244.426 189.479 251.811 141.694 241.496 139.368C240.438 139.136 239.308 139.013 238.127 139.013Z" fill="#497F84"/>
<path fill-rule="evenodd" clip-rule="evenodd" d="M260.711 119.245C259.728 119.245 258.737 119.457 257.781 119.855C258.633 119.444 260.441 119.855 261.334 119.855C262.227 119.855 262.735 119.444 263.641 119.855C262.686 119.457 261.702 119.245 260.711 119.245Z" fill="#FDDEC7"/>
<path fill-rule="evenodd" clip-rule="evenodd" d="M297.623 234.451L296.871 235.551C312.014 245.43 313.09 292.095 313.09 292.537H314.485C314.485 290.554 313.411 244.661 297.623 234.451Z" fill="#FFF7F1"/>
<path fill-rule="evenodd" clip-rule="evenodd" d="M298.826 174.286C298.826 174.3 300.645 188.11 300.777 188.792L298.826 174.286Z" fill="#ED7A79"/>
<path fill-rule="evenodd" clip-rule="evenodd" d="M298.732 174.286L296.873 174.618C297.3 175.96 300.732 188.242 301.02 188.801L302.74 188.467C302.591 188.016 300.164 179.755 298.732 174.286Z" fill="#413243"/>
<path fill-rule="evenodd" clip-rule="evenodd" d="M231.992 170.136L230.264 186.726C230.264 186.726 232.219 173.199 231.992 170.136Z" fill="#ED7A79"/>
<path fill-rule="evenodd" clip-rule="evenodd" d="M233.679 170.128L232.055 170.352C232.429 172.69 229.555 182.717 228.306 186.278L229.93 186.726C230.31 185.28 234.182 173.246 233.679 170.128Z" fill="#413243"/>
<path fill-rule="evenodd" clip-rule="evenodd" d="M404.597 190.875C393.792 193.983 392.844 197.091 392.844 197.091L404.597 190.875Z" fill="#ED7A79"/>
<path fill-rule="evenodd" clip-rule="evenodd" d="M408.514 174.286L410.473 188.792C410.201 185.481 408.518 174.292 408.514 174.286Z" fill="#ED7A79"/>
<path fill-rule="evenodd" clip-rule="evenodd" d="M266.384 106.032L266.847 105.126C266.022 104.76 265.186 104.465 264.25 104.307C263.859 104.241 263.457 104.249 263.055 104.257L263.218 105.27C263.64 105.255 264.057 105.283 264.462 105.352C265.139 105.466 265.786 105.694 266.384 106.032Z" fill="#413243"/>
<path fill-rule="evenodd" clip-rule="evenodd" d="M251.295 106.524C252.078 106.057 252.986 105.791 253.921 105.736C254.109 105.725 254.297 105.722 254.487 105.729L254.491 104.311L254.008 104.34C252.799 104.411 251.686 104.78 250.672 105.447L251.295 106.524Z" fill="#413243"/>
<path fill-rule="evenodd" clip-rule="evenodd" d="M253.259 107.118C252.554 107.118 251.966 107.717 251.966 108.496C251.966 109.215 252.554 109.813 253.259 109.813C253.963 109.813 254.551 109.215 254.551 108.496C254.551 107.717 253.963 107.118 253.259 107.118Z" fill="#413243"/>
<path fill-rule="evenodd" clip-rule="evenodd" d="M264.888 106.445C264.183 106.445 263.596 107.044 263.596 107.822C263.596 108.541 264.183 109.14 264.888 109.14C265.593 109.14 266.18 108.541 266.18 107.822C266.18 107.044 265.593 106.445 264.888 106.445Z" fill="#413243"/>
<path fill-rule="evenodd" clip-rule="evenodd" d="M200.739 185.268C200.739 185.268 189.249 222.499 194.591 226.869C196.98 228.924 201.465 229.648 206.788 229.648C219.366 229.648 236.629 225.616 242.035 225.616C242.709 225.616 243.198 225.681 243.471 225.822C246.429 227.127 249.832 230.481 252.105 230.481C252.571 230.481 252.988 230.341 253.346 230.015C255.45 227.918 246.386 221.275 246.063 219.354C245.9 217.429 250.431 218.655 251.24 217.08C252.138 215.626 252.484 213.721 248.3 213.721C247.963 213.721 247.595 213.733 247.194 213.76C246.771 213.774 246.371 213.779 245.991 213.779C241.436 213.779 239.874 212.886 237.484 212.886C234.731 212.711 224.373 208.515 223.402 207.816C222.267 207.292 225.343 191.91 225.343 191.91C222.59 191.91 200.739 185.268 200.739 185.268Z" fill="#F79A90"/>
<path fill-rule="evenodd" clip-rule="evenodd" d="M328.022 192.679C328.022 192.679 309.938 198.089 306.924 198.089C306.924 198.089 310.649 214.84 309.406 215.539C302.314 217.634 295.225 219.204 287.779 220.251C285.197 220.41 283.496 221.145 278.67 221.145C278.193 221.145 277.684 221.139 277.14 221.123C276.702 221.096 276.301 221.085 275.93 221.085C271.346 221.085 271.71 222.986 272.531 224.438C273.596 226.01 278.558 224.786 278.38 226.708C278.026 228.626 268.099 235.258 270.403 237.351C270.794 237.677 271.252 237.817 271.762 237.817C274.252 237.817 277.979 234.468 281.219 233.165C281.54 233.012 282.139 232.946 282.971 232.946C288.679 232.946 305.347 236.066 318.764 236.066C325.914 236.066 332.139 235.18 335.291 232.464C340.608 227.755 328.022 192.679 328.022 192.679Z" fill="#F79A90"/>
<path fill-rule="evenodd" clip-rule="evenodd" d="M221.106 208.174C218.073 208.174 211.443 209.347 210.618 209.516L210.78 210.322C214.533 209.516 218.284 209.114 222.036 209.114L222.362 208.308C222.107 208.214 221.669 208.174 221.106 208.174Z" fill="#413243"/>
<path fill-rule="evenodd" clip-rule="evenodd" d="M228.965 196.047C228.965 196.047 224.944 241.26 229.857 241.26C229.885 241.26 229.913 241.258 229.943 241.256C231.624 241.14 239.815 241.1 249.989 241.1C270.338 241.1 298.62 241.256 298.62 241.256V196.047H228.965Z" fill="#FFFCDE"/>
<path fill-rule="evenodd" clip-rule="evenodd" d="M265.687 212.89C263.255 212.89 260.072 213.908 259.751 219.137C259.384 223.662 262.278 224.73 265.093 224.73C267.608 224.73 270.059 223.877 270.059 223.877C270.059 223.877 264.119 221.69 264.119 218.772C264.119 216.039 266.04 213.851 268.485 213.304C268.485 213.304 267.24 212.89 265.687 212.89Z" fill="#413243"/>
</svg>
