<svg width="97" height="79" viewBox="0 0 97 79" fill="none" xmlns="http://www.w3.org/2000/svg">
<path d="M97 9.33324C95.6725 11.3219 94.165 13.1843 92.4964 14.8969C90.8195 16.6205 88.9975 18.1967 87.0506 19.6083C87.1131 20.4776 87.1454 21.3488 87.1476 22.2204C87.1476 26.1974 86.7249 30.1259 85.8727 34.0128C85.0235 37.8858 83.7839 41.6627 82.1729 45.2856C79.9414 50.3899 76.9924 55.1494 73.4151 59.4199C69.9867 63.5036 65.9705 67.0552 61.498 69.9582C57.0097 72.8545 52.1186 75.0724 46.9826 76.5404C41.6234 78.0743 36.074 78.8418 30.4996 78.8199C25.1238 78.8267 19.7745 78.0685 14.6124 76.5681C9.43873 75.0619 4.51512 72.8021 0 69.8612C5.21148 70.4913 10.4961 70.0874 15.5512 68.6726C20.6064 67.2578 25.3329 64.8599 29.4603 61.6162C26.3726 61.5731 23.3384 60.8043 20.6026 59.372C17.8669 57.9398 15.5063 55.8842 13.7116 53.3712C12.4876 51.6825 11.536 49.8121 10.8917 47.8284C11.5222 47.9254 12.1458 48.0085 12.7624 48.0709C15.1406 48.3036 17.5413 48.0946 19.8434 47.4542C17.5726 47.0065 15.4 46.1571 13.4276 44.9461C11.5164 43.7717 9.81213 42.2898 8.38357 40.5603C5.45083 37.0093 3.85706 32.5419 3.88 27.9365V27.7078C6.66529 29.2806 9.67921 30.119 12.9287 30.216C10.2192 28.3703 7.99459 25.8986 6.44357 23.0102C5.68402 21.5857 5.09563 20.0763 4.69064 18.5136C3.86573 15.2065 3.8824 11.7454 4.73914 8.44638C5.17564 6.76274 5.85464 5.16224 6.77614 3.64489C9.29814 6.76967 12.1111 9.57574 15.2013 12.0492C21.3428 16.9747 28.4394 20.5725 36.0424 22.6153C39.8801 23.6437 43.8175 24.2546 47.7864 24.4375C47.5949 23.6983 47.4605 22.9455 47.3845 22.1857C47.3064 21.4238 47.2671 20.6583 47.2667 19.8924C47.2667 17.1417 47.7864 14.5574 48.8326 12.1462C50.861 7.3819 54.6551 3.58782 59.4194 1.55938C61.8645 0.512883 64.4991 -0.0178247 67.1586 0.000456736C69.8865 -0.0128124 72.5875 0.540068 75.0908 1.62414C77.594 2.70821 79.8451 4.29989 81.7017 6.29853C86.1468 5.42096 90.4076 3.78505 94.2979 1.46239C92.8556 6.07938 89.7492 9.99573 85.5817 12.4511C89.5224 11.9931 93.3716 10.9444 97 9.34017V9.33324Z" fill="#62BDFF"/>
</svg>
