<svg width="95" height="86" viewBox="0 0 95 86" fill="none" xmlns="http://www.w3.org/2000/svg">
<path d="M20.3125 29.5C20.3125 30.478 19.8845 31.4159 19.1226 32.1075C18.3608 32.799 17.3274 33.1875 16.25 33.1875C15.1726 33.1875 14.1392 32.799 13.3774 32.1075C12.6155 31.4159 12.1875 30.478 12.1875 29.5C12.1875 28.522 12.6155 27.5841 13.3774 26.8925C14.1392 26.201 15.1726 25.8125 16.25 25.8125C17.3274 25.8125 18.3608 26.201 19.1226 26.8925C19.8845 27.5841 20.3125 28.522 20.3125 29.5V29.5ZM36.5625 29.5C36.5625 30.478 36.1345 31.4159 35.3726 32.1075C34.6108 32.799 33.5774 33.1875 32.5 33.1875C31.4226 33.1875 30.3892 32.799 29.6274 32.1075C28.8655 31.4159 28.4375 30.478 28.4375 29.5C28.4375 28.522 28.8655 27.5841 29.6274 26.8925C30.3892 26.201 31.4226 25.8125 32.5 25.8125C33.5774 25.8125 34.6108 26.201 35.3726 26.8925C36.1345 27.5841 36.5625 28.522 36.5625 29.5ZM48.75 33.1875C49.8274 33.1875 50.8608 32.799 51.6226 32.1075C52.3845 31.4159 52.8125 30.478 52.8125 29.5C52.8125 28.522 52.3845 27.5841 51.6226 26.8925C50.8608 26.201 49.8274 25.8125 48.75 25.8125C47.6726 25.8125 46.6392 26.201 45.8774 26.8925C45.1155 27.5841 44.6875 28.522 44.6875 29.5C44.6875 30.478 45.1155 31.4159 45.8774 32.1075C46.6392 32.799 47.6726 33.1875 48.75 33.1875V33.1875Z" fill="#F79A90"/>
<path d="M8.79531 58.2736L8.87656 58.2588C16.3109 56.9202 20.8528 55.1539 22.9653 54.1841C26.0755 54.9371 29.2811 55.3164 32.5 55.3125C50.4481 55.3125 65 43.7559 65 29.5C65 15.2441 50.4481 3.6875 32.5 3.6875C14.5519 3.6875 0 15.2441 0 29.5C0 35.99 3.01844 41.9269 8.00313 46.4625C7.65439 49.376 6.94018 52.2438 5.87437 55.0101L5.86219 55.0507C5.5593 55.843 5.22872 56.6264 4.87094 57.3996C4.55 58.0855 5.17156 58.8525 5.98 58.7345C6.92113 58.5947 7.85969 58.441 8.79531 58.2736V58.2736ZM12.0453 46.8128C12.1022 46.2729 12.0272 45.7283 11.8257 45.2178C11.6242 44.7073 11.3011 44.2433 10.8794 43.8591C6.57313 39.9356 4.0625 34.9133 4.0625 29.5C4.0625 17.7295 16.2662 7.375 32.5 7.375C48.7338 7.375 60.9375 17.7295 60.9375 29.5C60.9375 41.2742 48.7338 51.625 32.5 51.625C29.6363 51.6288 26.7845 51.2916 24.0175 50.622C23.0505 50.3868 22.0219 50.484 21.1291 50.8949C19.5569 51.6176 16.0916 52.9967 10.4284 54.1878C11.2185 51.7804 11.7598 49.3114 12.0453 46.8128V46.8128Z" fill="#F79A90"/>
<path d="M34 56C34 70.4975 47.6564 82.25 64.5 82.25C67.5208 82.254 70.5291 81.8682 73.4479 81.1025C75.6744 82.2125 80.787 84.3425 89.388 85.73C90.1505 85.85 90.73 85.07 90.4288 84.3725C89.0792 81.2375 87.8592 77.06 87.4932 73.25C92.1635 68.6375 95 62.6 95 56C95 41.5025 81.3436 29.75 64.5 29.75C47.6564 29.75 34 41.5025 34 56ZM75.9375 56C75.9375 55.0054 76.3392 54.0516 77.0542 53.3484C77.7691 52.6451 78.7389 52.25 79.75 52.25C80.7611 52.25 81.7309 52.6451 82.4458 53.3484C83.1608 54.0516 83.5625 55.0054 83.5625 56C83.5625 56.9946 83.1608 57.9484 82.4458 58.6516C81.7309 59.3549 80.7611 59.75 79.75 59.75C78.7389 59.75 77.7691 59.3549 77.0542 58.6516C76.3392 57.9484 75.9375 56.9946 75.9375 56V56ZM60.6875 56C60.6875 55.0054 61.0892 54.0516 61.8042 53.3484C62.5191 52.6451 63.4889 52.25 64.5 52.25C65.5111 52.25 66.4809 52.6451 67.1958 53.3484C67.9108 54.0516 68.3125 55.0054 68.3125 56C68.3125 56.9946 67.9108 57.9484 67.1958 58.6516C66.4809 59.3549 65.5111 59.75 64.5 59.75C63.4889 59.75 62.5191 59.3549 61.8042 58.6516C61.0892 57.9484 60.6875 56.9946 60.6875 56V56ZM49.25 59.75C48.2389 59.75 47.2691 59.3549 46.5542 58.6516C45.8392 57.9484 45.4375 56.9946 45.4375 56C45.4375 55.0054 45.8392 54.0516 46.5542 53.3484C47.2691 52.6451 48.2389 52.25 49.25 52.25C50.2611 52.25 51.2309 52.6451 51.9458 53.3484C52.6608 54.0516 53.0625 55.0054 53.0625 56C53.0625 56.9946 52.6608 57.9484 51.9458 58.6516C51.2309 59.3549 50.2611 59.75 49.25 59.75V59.75Z" fill="#FC7169"/>
</svg>
