<svg width="95" height="88" viewBox="0 0 95 88" fill="none" xmlns="http://www.w3.org/2000/svg">
<path fill-rule="evenodd" clip-rule="evenodd" d="M63.3334 57.3158V44C63.3334 37.9249 58.0168 33 51.4584 33H24.3906V20.2632C24.3906 15.1473 28.8678 11 34.3906 11H81.0573C86.5801 11 91.0573 15.1473 91.0573 20.2632V48.0526L91.1233 65.2182C91.1272 66.2308 90.2443 67.0545 89.1512 67.0581C88.6239 67.0598 88.1176 66.8666 87.7447 66.5211L77.8071 57.3158H63.3334Z" fill="#FF4380"/>
<path opacity="0.3" fill-rule="evenodd" clip-rule="evenodd" d="M7.85742 66V47.6667C7.85742 43.6166 11.4018 40.3334 15.7741 40.3334H47.4408C51.813 40.3334 55.3574 43.6166 55.3574 47.6667V66C55.3574 70.0501 51.813 73.3334 47.4408 73.3334H16.2322L11.3086 77.6986C10.519 78.3988 9.26612 78.3733 8.51031 77.6419C8.15774 77.3007 7.96094 76.8465 7.96094 76.3742V67.189C7.89283 66.802 7.85742 66.4049 7.85742 66ZM25.7291 51.3334C24.636 51.3334 23.7499 52.1542 23.7499 53.1667C23.7499 54.1792 24.636 55 25.7291 55H45.5207C46.6138 55 47.4999 54.1792 47.4999 53.1667C47.4999 52.1542 46.6138 51.3334 45.5207 51.3334H25.7291ZM37.6041 58.6667C36.511 58.6667 35.6249 59.4875 35.6249 60.5C35.6249 61.5126 36.511 62.3334 37.6041 62.3334H45.5207C46.6138 62.3334 47.4999 61.5126 47.4999 60.5C47.4999 59.4875 46.6138 58.6667 45.5207 58.6667H37.6041Z" fill="#FF4380"/>
</svg>
