<svg width="68" height="69" viewBox="0 0 68 69" fill="none" xmlns="http://www.w3.org/2000/svg">
<path d="M37.4 0.1725V7.1415C50.83 8.832 61.2 20.424 61.2 34.5C61.2 45.5745 54.672 55.2 45.152 59.616L37.4 51.75V69H54.4L50.252 64.791C60.894 58.8915 68 47.472 68 34.5C68 16.629 54.57 1.8975 37.4 0.1725ZM30.6 0C23.97 0.69 17.68 3.312 12.512 7.6245L17.34 12.5235C21.1993 9.50468 25.7714 7.56568 30.6 6.9V0ZM7.48 12.696C3.264 17.94 0.68 24.3225 0 31.05H6.8C7.446 26.151 9.35 21.4935 12.342 17.595L7.48 12.696ZM13.6 20.7V27.6H23.8V31.05H20.4C16.66 31.05 13.6 34.155 13.6 37.95V48.3H30.6V41.4H20.4V37.95H23.8C27.574 37.95 30.6 34.8795 30.6 31.05V27.6C30.6 25.77 29.8836 24.015 28.6083 22.721C27.3331 21.427 25.6035 20.7 23.8 20.7H13.6ZM34 20.7V37.95H44.2V48.3H51V37.95H54.4V31.05H51V20.7H44.2V31.05H40.8V20.7H34ZM0 37.95C0.68 44.6775 3.298 51.06 7.548 56.304L12.376 51.405C9.39083 47.4913 7.46833 42.8523 6.8 37.95H0ZM17.374 56.4765L12.512 61.3755C17.6779 65.6553 23.9661 68.3059 30.6 69V62.1C25.7777 61.4495 21.2129 59.5086 17.374 56.4765Z" fill="#5CCA60"/>
</svg>
