<svg width="60" height="60" viewBox="0 0 60 60" fill="none" xmlns="http://www.w3.org/2000/svg">
<g clip-path="url(#clip0_238:4)">
<path d="M54.5 42.5V38.75C54.3047 37.0303 53.4831 35.4426 52.1921 34.2899C50.901 33.1371 49.2308 32.5 47.5 32.5C45.7692 32.5 44.099 33.1371 42.8079 34.2899C41.5169 35.4426 40.6953 37.0303 40.5 38.75V42.5C39.7217 42.5526 38.9888 42.8856 38.4372 43.4372C37.8856 43.9888 37.5526 44.7217 37.5 45.5V54.25C37.5034 55.0687 37.8132 55.8564 38.3685 56.4579C38.9238 57.0595 39.6842 57.4313 40.5 57.5H54.25C55.0687 57.4966 55.8564 57.1868 56.4579 56.6315C57.0595 56.0762 57.4313 55.3158 57.5 54.5V45.75C57.4966 44.9313 57.1868 44.1436 56.6315 43.5421C56.0762 42.9405 55.3158 42.5687 54.5 42.5V42.5ZM43.75 38.75C43.7733 38.287 43.89 37.8335 44.0931 37.4168C44.2962 37.0001 44.5815 36.6288 44.9318 36.3252C45.2821 36.0216 45.6902 35.792 46.1316 35.6502C46.5729 35.5083 47.0384 35.4573 47.5 35.5C47.9616 35.4573 48.4271 35.5083 48.8684 35.6502C49.3098 35.792 49.7179 36.0216 50.0682 36.3252C50.4185 36.6288 50.7038 37.0001 50.9069 37.4168C51.11 37.8335 51.2267 38.287 51.25 38.75V42.5H43.75V38.75Z" fill="#413243"/>
<path d="M60 27.5V5C60 3.67392 59.4732 2.40215 58.5355 1.46447C57.5979 0.526784 56.3261 0 55 0L5 0C3.67392 0 2.40215 0.526784 1.46447 1.46447C0.526784 2.40215 0 3.67392 0 5L0 50C0 51.3261 0.526784 52.5979 1.46447 53.5355C2.40215 54.4732 3.67392 55 5 55H32.5V50H5V5H55V27.5" fill="#413243"/>
<path d="M15 10H10V15H15V10Z" fill="#413243"/>
<path d="M50 10H20V15H50V10Z" fill="#413243"/>
<path d="M32.5 40H20V45H32.5V40Z" fill="#413243"/>
<path d="M15 40H10V45H15V40Z" fill="#413243"/>
<path d="M25 20H20V25H25V20Z" fill="#413243"/>
<path d="M50 20H30V25H50V20Z" fill="#413243"/>
<path d="M37.02 30H30V35H35.5V33.75C35.5263 32.3552 36.0678 31.0195 37.02 30V30Z" fill="#413243"/>
<path d="M25 30H20V35H25V30Z" fill="#413243"/>
</g>
<defs>
<clipPath id="clip0_238:4">
<rect width="60" height="60" fill="white"/>
</clipPath>
</defs>
</svg>
