<svg width="155" height="124" viewBox="0 0 155 124" fill="none" xmlns="http://www.w3.org/2000/svg">
<path d="M60.955 54.1928C50.5791 47.5339 40.1972 43.9455 29.5901 43.0349C17.672 42.0117 12.9511 57.491 10 63.7637C15.2205 60.7065 25.2176 53.1788 54.8515 77.3731M60.955 54.1928C62.2374 55.0159 63.5198 55.8858 64.8025 56.8034C74.4755 63.7233 94.4993 65.297 100.596 65.2122C110.194 65.0787 121.964 57.6399 130.921 46.005C139.877 34.3701 149.995 12.6953 150 5C139.03 5.00687 83.4606 27.1112 68.8264 43.0103C65.5434 46.5771 62.9617 50.328 60.955 54.1928ZM60.955 54.1928C57.0768 61.6622 55.3463 69.5574 54.8515 77.3731M54.8515 77.3731C54.4612 83.5397 54.8401 89.6569 55.5403 95.4764C56.5711 104.043 64.7318 130.163 74.2124 113.626C82.8827 98.5029 70.7907 91.6961 68.7974 89.7898C63.7192 84.9332 59.085 80.8294 54.8515 77.3731Z" stroke="#FC7169" stroke-width="8"/>
</svg>
