<svg width="347" height="378" viewBox="0 0 347 378" fill="none" xmlns="http://www.w3.org/2000/svg">
<g clip-path="url(#clip0_229:184)">
<path fill-rule="evenodd" clip-rule="evenodd" d="M247.715 348C252.497 348 260.852 353.151 260.852 353.151C260.852 353.151 268.717 370.468 254.347 371.133C245.286 371.623 233.636 373 224.671 373C219.423 373 215.092 372.531 212.741 371.133C206.373 367.359 243.101 356.152 244.589 350.042C244.961 348.556 246.148 348 247.715 348Z" fill="#413243"/>
<path fill-rule="evenodd" clip-rule="evenodd" d="M300.813 348C304.939 348 312.147 354.182 312.147 354.182C312.147 354.182 318.932 374.962 306.535 375.759C298.717 376.347 288.667 378 280.932 378C276.404 378 272.668 377.437 270.639 375.759C265.146 371.231 296.832 357.782 298.116 350.451C298.437 348.668 299.461 348 300.813 348Z" fill="#413243"/>
<path fill-rule="evenodd" clip-rule="evenodd" d="M200.22 320.002L185.002 325.672C185.002 325.672 195.242 378 201.141 378C201.186 378 201.229 377.996 201.274 377.991C207 377.181 200.22 320.002 200.22 320.002Z" fill="#413243"/>
<path fill-rule="evenodd" clip-rule="evenodd" d="M17.7802 320.002C17.7802 320.002 11.0002 377.181 16.7262 377.991C16.7692 377.996 16.8122 378 16.8562 378C22.6112 378 32.9981 325.672 32.9981 325.672L17.7802 320.002Z" fill="#413243"/>
<path fill-rule="evenodd" clip-rule="evenodd" d="M128.577 198.002C91.1181 198.002 42.9291 203.694 28.4681 205.6C5.07708 208.685 13.485 286.593 13.485 286.593C-6.99996 304.124 -2.25997 333.826 13.332 339.67C22.536 343.213 51.604 344.836 83.186 344.836C105.112 344.836 128.25 344.055 146.792 342.591C181.953 339.994 210.998 345.998 208.553 314.186C206.566 289.516 200.604 284.808 186.387 283.834C186.387 283.834 186.845 223.942 175.226 206.736C170.734 200.171 151.698 198.002 128.577 198.002Z" fill="#F78A3F"/>
<path fill-rule="evenodd" clip-rule="evenodd" d="M135.598 282.002C95.641 282.002 37.327 284.009 37.327 284.009C27 290.298 31.101 311.423 42.491 315.937C49.381 318.537 79.059 321.998 107.871 321.998C127.318 321.998 146.371 320.421 157.754 315.937C186 304.811 175.673 288.686 172.181 284.009C170.966 282.504 155.576 282.002 135.598 282.002Z" fill="#F9BB75"/>
<path fill-rule="evenodd" clip-rule="evenodd" d="M136.486 254.002L53.6911 261.087C53.6911 261.087 32.0001 294.094 65.9121 302.306C71.6351 303.736 83.9841 304.998 96.9901 304.998C117.666 304.998 140 301.81 140 291.036C139.695 278.637 138.626 266.238 136.486 254.002Z" fill="#413243"/>
<path fill-rule="evenodd" clip-rule="evenodd" d="M93.508 168.002C93.508 168.002 93.811 182.829 93.659 185.061C93.508 187.133 80.747 186.177 76.95 190.004C73 193.83 86.216 204.991 94.115 209.615C94.551 209.877 95.042 210 95.578 210C102.518 210 116.998 189.526 116.293 189.526C111.433 189.048 102.469 186.974 102.773 183.148C102.927 179.321 102.927 175.973 102.927 175.973L93.508 168.002Z" fill="#F79A90"/>
<path fill-rule="evenodd" clip-rule="evenodd" d="M100.07 153.002C96.281 153.002 92.336 154.342 89.999 156.882C89.999 156.882 86.9999 180.336 99.4409 180.989C99.5719 180.996 99.7029 181 99.8319 181C107.966 181 112 166.051 109.935 158.838C108.798 154.87 104.543 153.002 100.07 153.002Z" fill="#F79A90"/>
<path fill-rule="evenodd" clip-rule="evenodd" d="M88.9371 165.002C88.6481 165.002 88.3071 165.163 87.9071 165.564C86.0001 167.466 88.3841 172.992 90.2921 172.992C90.3361 172.998 90.3781 173 90.4201 173C92.0001 173 91.2261 169.83 90.4511 167.811C90.4511 167.811 90.1411 165.002 88.9371 165.002Z" fill="#ED7A79"/>
<path fill-rule="evenodd" clip-rule="evenodd" d="M101.874 167.002L101.375 167.324C101.749 168.452 102.249 170.386 102.374 170.87C101.874 171.031 101.375 171.192 101 171.192V171.998H101.125C101.625 171.998 102.624 171.837 102.875 171.353C103 171.192 103 171.031 103 170.87C102.875 170.225 101.999 167.324 101.874 167.002Z" fill="#413243"/>
<path fill-rule="evenodd" clip-rule="evenodd" d="M93.5859 169.002C92.0359 169.002 91.002 170.168 91.002 171.5C91.002 172.832 92.0359 174 93.5859 174C94.9639 174 95.9979 172.832 95.9979 171.5C95.9979 170.168 94.9639 169.002 93.5859 169.002Z" fill="#E96571"/>
<path fill-rule="evenodd" clip-rule="evenodd" d="M106.5 169.002C105.168 169.002 104.002 170.036 104.002 171.414C104.002 172.792 105.168 174 106.5 174C107.832 174 108.998 172.792 108.998 171.414C108.998 170.036 107.832 169.002 106.5 169.002Z" fill="#E96571"/>
<path fill-rule="evenodd" clip-rule="evenodd" d="M100.5 176.5C99.6605 176.5 98.2745 175.153 97.5 175L98.1714 175C98.9472 175.154 99.7242 175.231 100.479 175.231C101.232 175.231 102.811 174.654 103.5 174.5L102 176C101 176.5 101.341 176.5 100.5 176.5Z" fill="#413243"/>
<path fill-rule="evenodd" clip-rule="evenodd" d="M105.923 165C105.462 165 105.002 165.529 105.002 166.413C105.002 167.295 105.462 168 105.923 168C106.538 168 106.998 167.295 106.998 166.413C106.998 165.529 106.538 165 105.923 165Z" fill="#413243"/>
<path fill-rule="evenodd" clip-rule="evenodd" d="M95.999 165C95.428 165 95 165.529 95 166.413C95 167.295 95.428 168 95.999 168C96.572 168 97 167.295 97 166.413C97 165.529 96.572 165 95.999 165Z" fill="#413243"/>
<path fill-rule="evenodd" clip-rule="evenodd" d="M81.0179 294.002C77.2049 294.002 71.0609 297.967 63.0349 307.183C52.4339 319.53 52.5879 322.453 52.1269 329.276C52.0019 331.182 52.5149 332 53.4929 332C56.0969 332 61.9879 326.189 67.7959 319.692C72.4049 314.656 78.7029 311.57 85.3089 311.245C85.3089 311.245 86.9979 298.574 84.0799 295.324C83.3389 294.459 82.3129 294.002 81.0179 294.002Z" fill="#F79A90"/>
<path fill-rule="evenodd" clip-rule="evenodd" d="M90.667 305C86.725 305 80.3591 307.854 71.9861 314.528C59.3241 324.658 59.016 327.552 57.472 334.144C57 336.156 57.522 337 58.746 337C61.532 337 67.96 332.627 74.61 327.712C78.923 324.278 84.2801 322.471 89.7361 322.471C90.9211 322.471 92.1101 322.556 93.2931 322.727C93.2931 322.727 97 310.67 94.683 306.971C93.969 305.697 92.614 305 90.667 305Z" fill="#F79A90"/>
<path fill-rule="evenodd" clip-rule="evenodd" d="M142.31 254C119.968 254 64.002 297.369 64.002 297.369C65.064 299.319 64.4569 311.185 75.6849 313.785C76.3109 313.931 77.0949 314 78.0209 314C93.7419 314 150.165 294.064 154.894 284.854C159.751 275.102 164 266.975 148.218 255.597C146.708 254.497 144.701 254 142.31 254Z" fill="#413243"/>
<path fill-rule="evenodd" clip-rule="evenodd" d="M149.084 259C128.966 259 79.388 305.955 79.388 305.955C71.002 310.162 72.3739 326.663 83.0479 331.355C84.0509 331.796 85.465 331.998 87.208 331.998C104 331.998 151.353 313.092 157.155 305.47C166 293.821 164.628 271.982 155.02 261.305C153.585 259.71 151.556 259 149.084 259Z" fill="#413243"/>
<path fill-rule="evenodd" clip-rule="evenodd" d="M109.94 188.002C109.94 188.002 109.027 200.792 98.3921 201.44C98.0501 201.464 97.7131 201.477 97.3781 201.477C86.4111 201.477 79.4001 188.973 79.4001 188.973C79.4001 188.973 78.5351 188.724 77.0531 188.724C74.7571 188.724 70.9771 189.321 66.6371 192.373C59.3441 197.231 56.0021 259.73 66.6371 262.322C75.8481 264.598 78.9611 267 92.8771 267C94.7971 267 96.9261 266.953 99.3041 266.855C118.752 265.884 125.893 265.56 133.946 261.675C141.998 257.626 136.834 213.584 132.731 201.44C128.779 189.297 114.497 189.297 109.94 188.002Z" fill="#F9BB75"/>
<path fill-rule="evenodd" clip-rule="evenodd" d="M70.86 190C70.634 190 70.387 190.098 70.116 190.299C67.888 192.068 55.124 192.068 48 230.979C48 230.979 55.261 238 61.177 238C61.592 238 61.999 237.965 62.398 237.891C68.482 236.766 71.6 213.452 72.342 204.127C73 195.864 72.608 190 70.86 190Z" fill="#F9BB75"/>
<path fill-rule="evenodd" clip-rule="evenodd" d="M118.582 190C118.175 190 118.002 190.078 118.115 190.183C120.331 191.956 120.035 194.695 120.774 204.045C121.512 213.392 124.615 236.763 130.672 237.891C131.067 237.965 131.473 238 131.885 238C137.774 238 145 230.962 145 230.962C140.527 195.082 121.884 190 118.582 190Z" fill="#F9BB75"/>
<path fill-rule="evenodd" clip-rule="evenodd" d="M47.7632 230C47.7632 230 37.0022 263.76 42.0052 267.723C44.2432 269.587 48.4432 270.242 53.4282 270.242C65.2072 270.242 81.3742 266.587 86.4372 266.587C87.0682 266.587 87.5262 266.645 87.7822 266.773C90.5522 267.957 93.7392 270.998 95.8682 270.998C96.3042 270.998 96.6952 270.871 97.0302 270.576C99.0002 268.674 90.5122 262.651 90.2092 260.908C90.0572 259.163 94.3002 260.274 95.0582 258.846C95.8992 257.528 96.2232 255.801 92.3042 255.801C91.9892 255.801 91.6442 255.812 91.2692 255.836C90.8722 255.848 90.4982 255.854 90.1422 255.854C85.8762 255.854 84.4132 255.043 82.1752 255.043C79.5972 254.885 69.8962 251.08 68.9872 250.446C67.9242 249.971 70.8052 236.023 70.8052 236.023C68.2272 236.023 47.7632 230 47.7632 230Z" fill="#F79A90"/>
<path fill-rule="evenodd" clip-rule="evenodd" d="M145.237 230C145.237 230 129.774 234.914 127.197 234.914C127.197 234.914 130.382 250.129 129.319 250.763C123.255 252.666 117.194 254.093 110.827 255.043C108.62 255.187 107.165 255.856 103.039 255.856C102.631 255.856 102.196 255.85 101.731 255.836C101.356 255.812 101.013 255.801 100.696 255.801C96.7771 255.801 97.0881 257.528 97.7901 258.846C98.7001 260.274 102.943 259.163 102.791 260.908C102.488 262.651 94.0001 268.674 95.9701 270.576C96.3051 270.871 96.6961 270.998 97.1321 270.998C99.2611 270.998 102.448 267.957 105.218 266.773C105.493 266.634 106.005 266.574 106.716 266.574C111.597 266.574 125.849 269.408 137.321 269.408C143.434 269.408 148.757 268.603 151.452 266.137C155.998 261.859 145.237 230 145.237 230Z" fill="#F79A90"/>
<path fill-rule="evenodd" clip-rule="evenodd" d="M76.167 212.002C76.167 212.002 70.002 224.325 70.335 235.998H71.001C70.835 224.649 77 212.326 77 212.326L76.167 212.002Z" fill="#413243"/>
<path fill-rule="evenodd" clip-rule="evenodd" d="M130.237 250.003C129.818 250.003 129.405 250.037 129 250.103L129.147 251.456C129.581 251.384 130.013 251.35 130.444 251.35C131.62 251.35 132.775 251.602 133.851 251.997L133.998 250.914C132.785 250.308 131.49 250.003 130.237 250.003Z" fill="#251933"/>
<path fill-rule="evenodd" clip-rule="evenodd" d="M67.8239 250.002C64.9839 250.002 58.774 251.092 58.002 251.249L58.1539 251.998C61.6679 251.249 65.1809 250.875 68.6949 250.875L68.9999 250.127C68.7609 250.039 68.3509 250.002 67.8239 250.002Z" fill="#413243"/>
<path fill-rule="evenodd" clip-rule="evenodd" d="M125.641 212.002L125.002 212.161C127.24 221.228 128.199 230.615 127.879 240H128.678C128.998 230.454 128.039 221.069 125.641 212.002Z" fill="#413243"/>
<path fill-rule="evenodd" clip-rule="evenodd" d="M81.7671 232.002C81.7671 232.002 78.0021 274 82.6031 274C82.6291 274 82.655 273.998 82.683 273.996C84.258 273.888 91.929 273.851 101.457 273.851C120.514 273.851 147 273.996 147 273.996V232.002H81.7671Z" fill="#61878C"/>
<path fill-rule="evenodd" clip-rule="evenodd" d="M96.5171 146C90.8761 146 86.1331 147.832 82.6341 150.862C78.5541 154.526 77.4971 162.011 73.8701 165.354C70.2451 168.699 62.8431 169.495 60.4251 174.751C58.0081 179.846 62.8431 184.624 59.0651 187.651C55.4411 190.676 50.0021 195.135 54.6841 201.665C55.9081 203.356 57.1021 203.998 58.3101 203.998C61.8801 203.998 65.5811 198.397 70.5471 197.683C72.8561 197.826 75.1951 197.904 77.5371 197.904C80.4061 197.904 83.2791 197.787 86.1071 197.524C94.8691 196.728 96.0791 187.651 95.1711 181.599C94.4161 176.025 87.6181 170.132 91.0931 164.876C92.4961 162.658 94.8431 162.369 97.4611 162.369C98.3791 162.369 99.3311 162.406 100.287 162.406C103.061 162.406 105.872 162.108 108.012 159.782C112.998 154.208 107.408 147.041 100.157 146.245C98.9071 146.081 97.6921 146 96.5171 146Z" fill="#413243"/>
<path fill-rule="evenodd" clip-rule="evenodd" d="M157.953 265L157.343 265.163C157.343 265.327 160.085 280.685 125.82 297.026C108.458 305.195 78.306 314.181 78.002 314.181L78.1539 314.998C78.4579 314.835 108.763 305.849 126.125 297.679C160.998 281.014 158.106 265.653 157.953 265Z" fill="#FDDEC7"/>
<path fill-rule="evenodd" clip-rule="evenodd" d="M73.7029 314C70.8949 315.12 68.381 316.881 66.017 318.8C62.766 322.159 59.809 325.68 57.002 329.518L57.593 329.998C60.253 326.319 63.3569 322.639 66.6079 319.44C68.8259 317.521 71.3389 315.919 73.9979 314.64L73.7029 314Z" fill="#413243"/>
<path fill-rule="evenodd" clip-rule="evenodd" d="M85.6909 279C84.7679 279.484 65.386 292.084 64.002 299.837L64.7709 299.998C66.0009 292.568 85.8439 279.807 85.9979 279.646L85.6909 279Z" fill="#FDDEC7"/>
<path fill-rule="evenodd" clip-rule="evenodd" d="M102.56 180C101.744 180.355 100.747 180.54 99.7449 180.54C98.9499 180.54 98.1519 180.424 97.4399 180.182L97.002 180.546C97.879 180.818 98.9029 181 99.9269 181C100.951 181 102.121 180.728 103 180.272L102.56 180Z" fill="#413243"/>
<path fill-rule="evenodd" clip-rule="evenodd" d="M113.905 246.002C111.628 246.002 108.647 246.948 108.346 251.805C108.002 256.008 110.713 257 113.349 257C115.704 257 118 256.208 118 256.208C118 256.208 112.437 254.177 112.437 251.466C112.437 248.927 114.236 246.895 116.526 246.387C116.526 246.387 115.36 246.002 113.905 246.002Z" fill="#413243"/>
<path fill-rule="evenodd" clip-rule="evenodd" d="M288.91 161C278.675 161.158 267.356 161.944 258.207 162.731C255.571 162.887 253.245 163.203 251.074 163.518C247.663 163.674 244.406 164.304 240.996 165.091C239.289 165.877 238.049 180.823 237.429 200.491C236.808 213.705 236.498 228.81 236.342 242.97C236.342 250.521 231 352.05 231 358.5C239.972 350.02 240.47 359.798 248.445 355.834C252.589 355.834 258.071 356.711 258.071 356.711C269.637 356.711 257.719 359.685 268.086 358.5C268.862 337.418 275.264 214.806 275.264 211.66L281.087 360.184C283.579 362.497 287.821 358.963 291.554 360.813C295.541 360.813 299.936 354.626 304.787 360.813C310.269 360.813 309.378 354.412 317.597 358.5C317.597 348.746 319.457 256.657 318.838 237.935C318.526 229.439 318.372 220.628 317.907 212.289C319.147 210.874 319.301 202.063 318.526 190.263C318.526 189.163 318.526 188.061 318.372 186.96C318.216 185.072 318.062 183.027 317.907 180.981C317.907 180.195 317.751 179.409 317.751 178.621C317.751 177.833 317.597 177.047 317.597 176.418C317.441 175.632 317.441 174.531 317.286 173.586C317.131 171.069 316.821 168.551 316.51 166.035L318.838 166.35C318.838 165.563 318.681 164.776 318.681 163.832L316.356 163.518L314.34 163.203C311.239 162.101 307.983 161.473 304.726 161.315L302.401 161.158C299.609 161 296.508 161 293.251 161H288.91Z" fill="#F79A90"/>
<path fill-rule="evenodd" clip-rule="evenodd" d="M302.356 80.002C297.002 80.002 299.52 99.058 299.52 105.466C299.52 111.834 317.562 137.998 325.203 137.998C325.25 137.998 325.297 137.998 325.344 137.996C326.149 137.943 326.925 137.93 327.662 137.93C328.424 137.93 329.144 137.943 329.817 137.943C334.617 137.943 336.998 137.224 334.161 125.51C324.714 84.765 302.356 80.002 302.356 80.002Z" fill="#413243"/>
<path fill-rule="evenodd" clip-rule="evenodd" d="M278.343 58.002C277.568 58.492 266.869 66.343 266.869 66.343C266.869 66.343 266.869 69.777 267.024 73.703C267.334 77.628 263.924 78.938 258.962 79.101C254 79.265 261.444 94.639 268.576 94.966C268.953 94.989 269.344 95 269.746 95C280.908 95 301 86.488 297.259 82.699C293.227 78.774 277.723 78.774 277.568 76.647C277.258 74.521 278.343 58.002 278.343 58.002Z" fill="#F79A90"/>
<path fill-rule="evenodd" clip-rule="evenodd" d="M268.256 43.002C263.599 43.002 259.135 44.975 257.953 49.115C256 56.487 260.052 72 268.25 72C268.463 72 268.679 71.99 268.897 71.969C284 70.623 278.451 46.931 278.451 46.931C276.082 44.348 272.102 43.002 268.256 43.002Z" fill="#F79A90"/>
<path fill-rule="evenodd" clip-rule="evenodd" d="M266.587 58.002C266.411 58.335 265.176 61.333 265 61.999C265 62.165 265 62.332 265.176 62.498C265.529 62.998 266.94 62.998 267.645 62.998H267.998V62.165C267.293 62.165 266.587 62.165 265.882 61.999C266.058 61.333 266.94 59.501 267.469 58.335L266.587 58.002Z" fill="#413243"/>
<path fill-rule="evenodd" clip-rule="evenodd" d="M274.587 60.002C273.034 60.002 272 61.036 272 62.586C272 63.964 273.034 65 274.587 65C275.966 65 277 63.964 277 62.586C277 61.036 275.966 60.002 274.587 60.002Z" fill="#E96571"/>
<path fill-rule="evenodd" clip-rule="evenodd" d="M261.501 59.002C260.166 59.002 259 60.168 259 61.5C259 62.832 260.166 64 261.501 64C262.834 64 264 62.832 264 61.5C264 60.168 262.834 59.002 261.501 59.002Z" fill="#E96571"/>
<path fill-rule="evenodd" clip-rule="evenodd" d="M271.41 63C270.97 63.939 270.235 64.876 269.353 65.063C269.223 65.095 269.096 65.111 268.975 65.111C268.409 65.111 267.926 64.775 267.441 64.314L267 65.063C267.588 65.625 268.324 66 269.059 66H269.5C270.529 65.625 271.41 64.688 271.998 63.375L271.41 63Z" fill="#413243"/>
<path fill-rule="evenodd" clip-rule="evenodd" d="M262.078 56C261.463 56 261.002 56.705 261.002 57.589C261.002 58.295 261.463 59 262.078 59C262.539 59 263 58.295 263 57.589C263 56.705 262.539 56 262.078 56Z" fill="#413243"/>
<path fill-rule="evenodd" clip-rule="evenodd" d="M272.922 56C272.461 56 272 56.705 272 57.589C272 58.295 272.461 59 272.922 59C273.537 59 273.998 58.295 273.998 57.589C273.998 56.705 273.537 56 272.922 56Z" fill="#413243"/>
<path fill-rule="evenodd" clip-rule="evenodd" d="M275.345 35.0019C268.983 35.0019 261.078 37.6134 259.554 41.13C259.554 41.13 255.002 49.536 256.974 51.799C258.066 53.253 264.57 54.068 269.597 54.068C272.947 54.068 275.643 53.706 275.643 52.93C275.643 51.206 275.762 45.53 276.428 45.53C276.512 45.53 276.604 45.619 276.706 45.818C281.942 56.015 275.821 67 276.955 67C276.973 67 276.99 66.996 277.009 66.993C279.589 66.508 287.633 63.597 288.393 55.677C289 47.919 285.508 36.6048 278.83 35.312C277.766 35.1003 276.585 35.0019 275.345 35.0019Z" fill="#413243"/>
<path fill-rule="evenodd" clip-rule="evenodd" d="M282.501 25C278.941 25 276.002 28.1673 276.002 31.999C276.002 35.8327 278.941 38.9981 282.501 38.9981C286.059 38.9981 289 35.8327 289 31.999C289 28.1673 286.059 25 282.501 25Z" fill="#413243"/>
<path fill-rule="evenodd" clip-rule="evenodd" d="M279.143 56C277.897 56 277.58 58.872 277.58 58.872C276.791 60.751 276.002 63.998 277.895 63.998C279.631 63.827 282 58.53 280.105 56.477C279.735 56.139 279.417 56 279.143 56Z" fill="#F79A90"/>
<path fill-rule="evenodd" clip-rule="evenodd" d="M282.275 78.002C280.677 78.002 276.333 89.042 270.701 89.042C270.27 89.042 269.831 88.978 269.386 88.838C265.077 87.361 262.155 83.42 261.54 78.824C261.252 78.815 260.964 78.811 260.679 78.811C249.787 78.811 239.962 84.746 238.463 85.226C236.925 85.72 236.002 183.731 238.463 183.731C240.503 183.731 290.069 186.998 309.717 186.998C313.781 186.998 316.566 186.859 317.384 186.521C321.998 184.551 312.615 88.838 306.615 83.748C300.768 78.66 287.845 78.989 282.309 78.002C282.298 78.002 282.287 78.002 282.275 78.002Z" fill="#E96571"/>
<path fill-rule="evenodd" clip-rule="evenodd" d="M206.988 48.002C206.84 48.002 206.701 48.134 206.578 48.435C205.646 51.233 206.422 57.486 206.422 57.486C206.422 57.486 204.955 49.566 204.444 49.566C204.43 49.566 204.416 49.573 204.401 49.588C203.935 50.082 201.761 51.233 203.469 60.282C204.246 64.726 187.002 128.565 197.876 141.564C199.961 143.99 202.68 145 205.731 145C218.825 145 238.062 126.427 239.826 121.49C242 115.568 237.805 85.785 237.805 85.785C237.805 85.785 218.384 110.796 212.948 111.783C212.905 111.789 212.864 111.792 212.823 111.792C207.642 111.792 216.027 60.052 212.482 51.562C211.746 49.849 211.211 49.195 210.821 49.195C209.568 49.195 209.839 56.004 209.839 56.004C209.839 56.004 208.133 48.002 206.988 48.002Z" fill="#F79A90"/>
<path fill-rule="evenodd" clip-rule="evenodd" d="M214.927 52.002C214.147 52.002 212.861 56.706 212.724 57.516C212.575 58.39 211.383 58.04 210.192 59.438C209.002 60.836 209.746 63.457 209.746 63.457C209.746 63.457 211.058 65 212.278 65C212.479 65 212.681 64.956 212.873 64.857C214.064 63.982 215.998 53.145 215.105 52.096C215.051 52.032 214.991 52.002 214.927 52.002Z" fill="#F79A90"/>
<path fill-rule="evenodd" clip-rule="evenodd" d="M212.325 56C212.325 56.167 212.325 56.333 212.19 56.5C212.055 58.001 211.108 59.001 210.027 59.167C209.487 59.167 208.947 59.5 208.812 60.167C208.002 61.666 209.082 64.833 209.082 65L209.622 64.667C209.352 63.832 208.812 61.5 209.352 60.5C209.487 60.167 209.757 60 210.027 60C211.513 59.834 212.595 58.501 212.865 56.833C212.865 56.5 212.865 56.333 213 56.167L212.325 56Z" fill="#413243"/>
<path fill-rule="evenodd" clip-rule="evenodd" d="M210.866 70C206.278 70 200.018 71.318 200.018 71.318C195.682 72.14 185.002 140.261 198.004 146.514C199.877 147.395 201.809 147.781 203.762 147.781C217.414 147.781 232.028 128.906 233.746 128.906C233.753 128.906 233.759 128.906 233.766 128.906C235.623 129.071 231.752 216.937 234.849 218.419C235.589 218.813 237.238 218.998 239.327 218.998C245.975 218.998 257.061 217.107 257.296 213.976C257.605 210.026 258.998 83.657 255.748 79.216C255.44 78.807 254.608 78.632 253.469 78.632C250.022 78.632 243.758 80.239 240.732 81.848C234.694 85.302 217.82 102.91 215.498 105.213C215.409 105.302 215.329 105.343 215.256 105.343C213.28 105.343 216.692 74.332 215.498 71.318C215.034 70.329 213.159 70 210.866 70Z" fill="#413243"/>
<path fill-rule="evenodd" clip-rule="evenodd" d="M292.917 78C291.225 78 289.849 78.232 289.002 78.701C289.002 78.701 289.002 212.516 292.701 214.32C293.608 214.802 295.779 215 298.558 215C307.112 215 321.449 213.138 322.611 212.024C324 210.549 316.291 90.179 313.207 86.408C308.877 80.906 298.918 78 292.917 78Z" fill="#413243"/>
<path fill-rule="evenodd" clip-rule="evenodd" d="M256.206 81.002C256.206 81.002 241.002 114.708 242.863 123.137C244.724 131.398 252.947 134.867 253.723 142.138C254.345 149.408 247.984 155.852 246.586 165.766C245.199 174.635 254.735 187.998 256.875 187.998C257.126 187.998 257.276 187.812 257.292 187.411C257.602 183.612 258.998 86.125 256.206 81.002Z" fill="#61878C"/>
<path fill-rule="evenodd" clip-rule="evenodd" d="M289.018 81.002C288.834 81.002 288.744 81.171 288.771 81.534C288.771 81.534 288 182.424 290.001 185.694C290.137 185.9 290.306 185.998 290.504 185.998C293.452 185.998 302.766 164.534 302.766 158.713C302.766 152.337 292.461 136.148 292.461 134.186C292.461 132.061 299.843 123.885 302.459 112.601C304.998 102.244 291.08 81.002 289.018 81.002Z" fill="#61878C"/>
<path fill-rule="evenodd" clip-rule="evenodd" d="M306.759 109.002C306.759 109.002 297.002 160.516 299.288 161.014C301.727 161.513 331.308 165.998 331.308 165.998C331.308 165.998 339.998 118.639 338.626 114.484C338.017 112.989 306.759 109.002 306.759 109.002Z" fill="#61878C"/>
<path fill-rule="evenodd" clip-rule="evenodd" d="M307.963 112C307.963 112 299 157.261 301.358 157.751C303.875 158.404 330.137 162 330.137 162C330.137 162 338 120.986 336.583 116.903C335.954 115.267 307.963 112 307.963 112Z" fill="#FDDEC7"/>
<path fill-rule="evenodd" clip-rule="evenodd" d="M323.772 106.002C322.189 106.002 321.573 108.331 321.827 111.024L317.197 110.858C317.197 110.858 316 114.506 316.45 114.506C317.047 114.506 328.55 116 328.55 116C328.849 114.34 328.998 112.516 328.998 112.516L325.414 111.853C325.414 111.853 326.907 107.208 324.667 106.213C324.34 106.069 324.042 106.002 323.772 106.002Z" fill="#E96571"/>
<path fill-rule="evenodd" clip-rule="evenodd" d="M311.621 117.002C311.466 117.687 311.312 118.372 311.157 119.058C311.002 120.086 332.69 123 332.69 123C332.845 122.313 333 121.628 333 120.771C332.69 120.086 311.621 117.002 311.621 117.002Z" fill="#413243"/>
<path fill-rule="evenodd" clip-rule="evenodd" d="M310.779 122C310.468 122.428 310.313 123.001 310.157 123.715C310.002 124.572 324 126 324 126C324 125.429 324 124.715 324 124.001L310.779 122Z" fill="#413243"/>
<path fill-rule="evenodd" clip-rule="evenodd" d="M309.771 130.002C309.463 130.516 309.308 131.201 309.308 131.886C309 133.086 330.539 135.998 330.539 135.998C330.846 135.313 331 134.456 330.846 133.771C330.692 132.914 309.771 130.002 309.771 130.002Z" fill="#413243"/>
<path fill-rule="evenodd" clip-rule="evenodd" d="M308.769 134C308.461 134.689 308.308 135.379 308.308 136.068C308 137.277 321.844 139 321.844 139C321.998 138.138 321.998 137.277 321.844 136.585L308.769 134Z" fill="#413243"/>
<path fill-rule="evenodd" clip-rule="evenodd" d="M306.769 145.002C306.461 145.687 306.308 146.372 306.308 147.058C306 148.086 327.537 150.998 327.537 150.998C327.844 150.313 327.998 149.628 327.844 148.771C327.691 148.086 306.769 145.002 306.769 145.002Z" fill="#413243"/>
<path fill-rule="evenodd" clip-rule="evenodd" d="M305.624 149C305.468 149.689 305.157 150.379 305.157 151.068C305.002 152.277 318.844 154 318.844 154C319 153.138 319 152.449 318.844 151.587L305.624 149Z" fill="#413243"/>
<path fill-rule="evenodd" clip-rule="evenodd" d="M330.023 135C329.984 135 329.95 135.004 329.92 135.013C328.777 135.516 333.018 142.044 333.018 142.044C333.018 142.044 328.824 138.457 327.813 138.457C327.733 138.457 327.673 138.48 327.635 138.53C326.494 139.534 330.409 145.226 330.409 145.226C330.409 145.226 326.475 141.427 325.332 141.427C325.116 141.427 325 141.559 325.026 141.877C326.005 145.895 328.94 148.907 332.692 149.912C333.024 149.971 333.348 149.998 333.659 149.998C337.785 149.998 340 145.062 337.423 140.705C337.423 140.705 331.401 135 330.023 135Z" fill="#F79A90"/>
<path fill-rule="evenodd" clip-rule="evenodd" d="M274.507 68C271.704 70.56 269.414 71.085 267.978 71.085C266.981 71.085 266.395 70.832 266.327 70.832L266 71.5C266.654 71.833 267.309 72 267.965 72C270.582 71.833 273.199 70.665 275 68.666L274.507 68Z" fill="#413243"/>
<path fill-rule="evenodd" clip-rule="evenodd" d="M230.782 33.0019C230.341 33.0019 229.881 33.434 229.424 34.5023C227.002 40.1518 232.148 50.967 232.148 50.967C232.239 50.989 232.333 51 232.43 51C235.812 51 243.998 37.7963 240.174 34.5023C240.023 34.3558 239.849 34.289 239.661 34.289C237.771 34.289 234.269 40.9586 234.269 40.9586C234.269 40.9586 232.675 33.0019 230.782 33.0019Z" fill="#E96571"/>
<path fill-rule="evenodd" clip-rule="evenodd" d="M216.682 23C214.692 23 214.114 31.3124 214.114 31.3124C214.114 31.3124 209.978 25.772 208.015 25.772C207.403 25.772 207.002 26.3088 207.002 27.7199C207.002 33.8115 216.124 40.9982 216.124 40.9982C219.372 40.3734 222 24.4381 216.897 23.0323C216.824 23.0108 216.753 23 216.682 23Z" fill="#E96571"/>
<path fill-rule="evenodd" clip-rule="evenodd" d="M228.55 1.00189C226.472 1.00189 225.434 9.61969 225.434 9.61969C225.434 9.61969 221.352 3.42519 219.3 3.42519C218.674 3.42519 218.238 4.00069 218.162 5.50009C218 11.9256 227.051 19.9981 227.051 19.9981C230.605 19.504 234 2.86479 228.828 1.05299C228.734 1.01889 228.641 1.00189 228.55 1.00189Z" fill="#E96571"/>
<path fill-rule="evenodd" clip-rule="evenodd" d="M307.14 26.4106C308.763 26.4106 310.312 27.7656 310.312 29.8696C310.312 31.6705 308.924 33.3078 307.229 33.3078C304.301 33.3078 302.915 29.5421 304.918 27.4118C305.568 26.723 306.361 26.4106 307.14 26.4106ZM321.473 26.4106C323.096 26.4106 324.645 27.7656 324.645 29.8696C324.645 31.6705 323.104 33.3078 321.408 33.3078C318.48 33.1441 317.248 29.5421 319.251 27.4118C319.901 26.723 320.696 26.4106 321.473 26.4106ZM334.457 26.4106C336.125 26.4106 337.746 27.7656 337.746 29.8696C337.746 31.6705 336.203 33.3078 334.508 33.3078C331.735 33.3078 330.194 29.5421 332.197 27.4118C332.847 26.723 333.658 26.4106 334.457 26.4106ZM325.03 8.00189C311.846 8.00189 295.002 18.0155 296.904 32.1617C299.061 47.064 309.078 44.936 310.929 47.228C312.624 49.52 307.845 52.306 309.696 52.96C309.804 52.987 309.93 53 310.068 53C312.468 53 318.943 49.193 318.943 49.193C321.723 50.751 324.72 51.498 327.683 51.498C333.748 51.498 339.669 48.365 343.292 42.644C351 31.6705 340.673 9.07079 327.111 8.08839C326.43 8.03009 325.734 8.00189 325.03 8.00189Z" fill="#F78A3F"/>
</g>
<defs>
<clipPath id="clip0_229:184">
<rect width="347" height="378" fill="white"/>
</clipPath>
</defs>
</svg>
